<svg xmlns="http://www.w3.org/2000/svg" role="img" viewBox="-7.88 -7.88 409.50 104.25"><title>RConsortium_Horizontal_Pantone.svg</title><path fill="#212322" d="M105.27 59.27a11.54 11.54 0 0 1-4.3-9.31V47.1a11.5 11.5 0 0 1 4.3-9.3 15.18 15.18 0 0 1 10-3.58 15 15 0 0 1 11.43 4.86l-5.73 4.3a7.92 7.92 0 0 0-5.68-2.54 6.69 6.69 0 0 0-5 2.29 7.65 7.65 0 0 0-2.15 5.44 8 8 0 0 0 2 5.44 6.54 6.54 0 0 0 5.16 2.29 7.92 7.92 0 0 0 5.72-2.58l5.73 4.3a15.86 15.86 0 0 1-21.47 1.29zm29.72-.33a15.06 15.06 0 1 1 10.42 4.19 14.2 14.2 0 0 1-10.42-4.19zm10.39-2.74a6.89 6.89 0 0 0 5.3-2.19 8.36 8.36 0 0 0 0-10.92 7.47 7.47 0 0 0-10.59 0 8.36 8.36 0 0 0 0 10.92 6.88 6.88 0 0 0 5.28 2.19zm28.08-11.56v18.2h-8v-27.8l8-.86v2.66a10 10 0 0 1 6.87-2.57c3.63 0 6.39 1.1 8.3 3.29a11.2 11.2 0 0 1 2.86 7.59v17.69h-8V47.1a6.39 6.39 0 0 0-1.43-4.44 5.83 5.83 0 0 0-4.33-1.66q-2.5.18-4.27 3.64zm40.94-9.62a13.85 13.85 0 0 1 4.18 2.89l-4.47 5a6.09 6.09 0 0 0-4.87-2.32c-1.92 0-3.21.36-3.86 1.07s-.65 1.37 0 2a8.82 8.82 0 0 0 3.86 1.45 13.43 13.43 0 0 1 7 2.43c1.81 1.36 2.72 3.71 2.72 7.07a7.23 7.23 0 0 1-3.21 6.3 12.74 12.74 0 0 1-7.47 2.23 17.1 17.1 0 0 1-6.77-1.16 14.79 14.79 0 0 1-4.65-3.1l4.43-5q2 2.31 6.05 2.69c2.19 0 3.61-.36 4.25-1.08a1.64 1.64 0 0 0 .28-2.14c-.45-.72-2-1.2-4.53-1.45a15.68 15.68 0 0 1-6.4-2.15q-2.91-1.74-2.91-6.58a7.75 7.75 0 0 1 3.31-6.77 11.61 11.61 0 0 1 6.8-2.33 16.14 16.14 0 0 1 6.26.95zm12.91 23.92a15.06 15.06 0 1 1 10.42 4.19 14.16 14.16 0 0 1-10.42-4.19zm10.39-2.74a6.9 6.9 0 0 0 5.3-2.19 8.36 8.36 0 0 0 0-10.92 6.91 6.91 0 0 0-5.33-2.2 6.84 6.84 0 0 0-5.27 2.2 8.36 8.36 0 0 0 0 10.92 6.9 6.9 0 0 0 5.3 2.19zm27.45-18.83a10.05 10.05 0 0 1 7.48-3.15 14.24 14.24 0 0 1 2.66.23l-1.26 7.9a6.14 6.14 0 0 0-4-1.35c-1.94.14-3.57 1.55-4.87 4.24v17.6h-8v-27.8l8-.86zm28.35 25.47a10.77 10.77 0 0 1-7.73-2.72 9.26 9.26 0 0 1-2.87-7v-12.4h-4.29v-6.47h4.29v-7.76l8-.86v8.62h4.29v6.47h-4.2v11.25a4.39 4.39 0 0 0 1 3.22 3.4 3.4 0 0 0 2.47.93 14.91 14.91 0 0 0 2.15-.37l1.69 5.75a8.42 8.42 0 0 1-4.8 1.34zm10.49-38.37a4.15 4.15 0 0 1 3.09-1.16 4.3 4.3 0 0 1 3.2 1.16 3.9 3.9 0 0 1 1.15 2.88 3.86 3.86 0 0 1-1.15 2.86 4.91 4.91 0 0 1-6.29 0 3.86 3.86 0 0 1-1.15-2.86 3.9 3.9 0 0 1 1.15-2.88zm7.11 38.37V34.19h-8v28.65zm24.25-10.16V34.19h8v28.65h-8v-2.6a10 10 0 0 1-6.87 2.58c-3.63 0-6.39-1.1-8.3-3.3a11.19 11.19 0 0 1-2.86-7.58V34.19h8v15.74a6.39 6.39 0 0 0 1.43 4.44 5.8 5.8 0 0 0 4.33 1.66q2.5-.19 4.27-3.35zm22.85-8.16v18.32h-8v-27.8l8-.86v2.55a9.64 9.64 0 0 1 6.87-2.52q5.43 0 8.3 3.29 3.15-3.28 9.45-3.29 5.43 0 8.3 3.29a11.2 11.2 0 0 1 2.86 7.59v17.75h-8V47.1a6.83 6.83 0 0 0-1.28-4.44 5.34 5.34 0 0 0-4.18-1.66q-2.38.18-4.12 3.15a10.78 10.78 0 0 0-.15 1.81v16.88h-8V47.1a6.83 6.83 0 0 0-1.29-4.44 5.32 5.32 0 0 0-4.18-1.66q-2.67.18-4.58 3.52z"/><path fill="#0047ba" d="M61.45 39.31q0 9.15-7.25 11.82l9.64 13.62H53.38l-8.39-12.14h-5.93v12.14h-8.5V26.67h14.43q8.88 0 12.67 3t3.79 9.64zm-10.24 4.53a5.75 5.75 0 0 0 1.57-4.49c0-2-.54-3.46-1.63-4.22s-3-1.15-5.72-1.15h-6.37v11.28h6.21q4.35-.01 5.94-1.42zM22.22 82.77a4.76 4.76 0 0 1-1.74-6.49 4.77 4.77 0 0 1 6.51-1.74 4.76 4.76 0 0 1 1.74 6.49 4.76 4.76 0 0 1-4.11 2.37 4.81 4.81 0 0 1-2.4-.63zM60.06 81a4.75 4.75 0 0 1 1.74-6.49 4.72 4.72 0 0 1 6.46 1.73 4.74 4.74 0 0 1-1.72 6.48 4.63 4.63 0 0 1-2.37.65A4.77 4.77 0 0 1 60.06 81zM5.99 66.57a4.74 4.74 0 0 1 1.72-6.48 4.75 4.75 0 0 1 6.47 1.75 4.73 4.73 0 0 1-1.72 6.49 4.84 4.84 0 0 1-2.37.63 4.72 4.72 0 0 1-4.1-2.39zm73.21-22.2v-.19a4.75 4.75 0 0 1 4.73-4.76 4.76 4.76 0 0 1 4.76 4.73v.19a4.74 4.74 0 0 1-4.7 4.73 4.74 4.74 0 0 1-4.8-4.7zM7.64 28.73a4.76 4.76 0 0 1-1.76-6.48 4.74 4.74 0 0 1 6.49-1.74 4.72 4.72 0 0 1 1.73 6.47 4.76 4.76 0 0 1-4.11 2.38 4.66 4.66 0 0 1-2.35-.63zm54-14.64a4.76 4.76 0 0 1-1.76-6.48 4.75 4.75 0 0 1 6.5-1.77 4.75 4.75 0 0 1 1.76 6.48 4.75 4.75 0 0 1-4.15 2.39 4.67 4.67 0 0 1-2.33-.62zm-17.43-4.6a4.76 4.76 0 0 1-4.76-4.75A4.74 4.74 0 0 1 44.18 0a4.73 4.73 0 0 1 4.81 4.73 4.76 4.76 0 0 1-4.73 4.76z"/><path fill="#969cde" d="M39.64 83.94a4.74 4.74 0 0 1 4.75-4.75 4.73 4.73 0 0 1 4.74 4.73 4.76 4.76 0 0 1-4.74 4.76 4.75 4.75 0 0 1-4.75-4.74zm36.63-15.71a4.74 4.74 0 0 1-1.73-6.48 4.74 4.74 0 0 1 6.45-1.74 4.75 4.75 0 0 1 1.72 6.48 4.74 4.74 0 0 1-4.07 2.35 4.77 4.77 0 0 1-2.37-.61zM-.01 44.42a4.75 4.75 0 0 1 4.73-4.75 4.74 4.74 0 0 1 4.76 4.73 4.75 4.75 0 0 1-4.73 4.76 4.75 4.75 0 0 1-4.76-4.74zm74.47-17.58a4.76 4.76 0 0 1 1.71-6.49 4.76 4.76 0 0 1 6.49 1.71 4.75 4.75 0 0 1-1.67 6.44 4.67 4.67 0 0 1-2.37.64 4.74 4.74 0 0 1-4.16-2.3zM20.35 12.48a4.74 4.74 0 0 1 1.71-6.49 4.73 4.73 0 0 1 6.48 1.71 4.72 4.72 0 0 1-1.71 6.48 4.54 4.54 0 0 1-2.38.65 4.75 4.75 0 0 1-4.1-2.35z"/></svg>