<svg xmlns="http://www.w3.org/2000/svg" role="img" viewBox="-7.92 -7.92 412.10 103.85"><title>Yale_SOPH_web.svg</title><defs><style>.cls-2{fill:#2b4160}</style></defs><path fill="#82a1c3" d="M111 35.56c-1.8.4-3.7-.5-5.2-1.5a9.34 9.34 0 0 1-2.7-4.3c-.3 0-.7.1-1 .1.2 2 .4 4 .7 6a15.52 15.52 0 0 0 10.4.8 7 7 0 0 0 4.7-4.1 6 6 0 0 0-1.1-5.9c-1.5-1.5-3.8-2.4-5.7-3.2a13.39 13.39 0 0 1-3.3-1.8 4 4 0 0 1-.9-3.6 3.64 3.64 0 0 1 2.8-2.3 6 6 0 0 1 5.3 1.4 6.59 6.59 0 0 1 1.7 3.8h1v-5.9a14.31 14.31 0 0 0-9.8-.5 8 8 0 0 0-4.1 3.1 6.39 6.39 0 0 0-.6 4.1 4.79 4.79 0 0 0 1.8 3c2.3 1.9 5.6 2.6 8 4.1a3.34 3.34 0 0 1 1.3 4.1 4.38 4.38 0 0 1-3.3 2.6zm69.4-.32a12.36 12.36 0 0 0 7 1.9 12.87 12.87 0 0 0 10.1-4.9 12.6 12.6 0 0 0 1.3-11.9 9.27 9.27 0 0 0-3.7-4.6 12.23 12.23 0 0 0-8.2-1.7 12 12 0 0 0-9.6 6.1 12.29 12.29 0 0 0-.8 9.4 9.91 9.91 0 0 0 3.9 5.7zm1-15.8a6.79 6.79 0 0 1 4.1-3.7 7.82 7.82 0 0 1 5.6 1.1 8.23 8.23 0 0 1 3.4 4.4 16.4 16.4 0 0 1 .8 6.6 9.17 9.17 0 0 1-3.4 6.7c-2.2 1.7-5.7 1.2-7.9-.4s-3.1-4.1-3.6-6.7a14.33 14.33 0 0 1 1-8zm25.2 14.8a9.92 9.92 0 0 0 5.6 2.7 14.4 14.4 0 0 0 7.1-.6 12 12 0 0 0 6.6-5.7 13 13 0 0 0 .1-10.9 9.35 9.35 0 0 0-4.3-4.5 13.17 13.17 0 0 0-7.1-1.2 11.87 11.87 0 0 0-10.9 15.1 10.5 10.5 0 0 0 2.9 5.1zm2.3-15a6.31 6.31 0 0 1 4-3.5 7.74 7.74 0 0 1 5.6 1 9.07 9.07 0 0 1 3.7 5.3 14.67 14.67 0 0 1 .2 7.5 7.72 7.72 0 0 1-4.6 5.6 7.37 7.37 0 0 1-7.3-2 12.08 12.08 0 0 1-2.8-6.3 13.44 13.44 0 0 1 1.2-7.6zm58.4 15.8a11.47 11.47 0 0 0 7.6 2 12.41 12.41 0 0 0 9.6-4.8 12.54 12.54 0 0 0 1-12.8 9.21 9.21 0 0 0-4.1-4.2 13.07 13.07 0 0 0-7.3-1.3 13.29 13.29 0 0 0-6.4 2.3 10.85 10.85 0 0 0-4.4 6.6 13.84 13.84 0 0 0 .1 6.4 11.13 11.13 0 0 0 3.9 5.8zm1.2-15.6a7.2 7.2 0 0 1 3.8-3.7 7.27 7.27 0 0 1 4.4.2 8.57 8.57 0 0 1 4.9 5 15.11 15.11 0 0 1 .8 7.3 8.23 8.23 0 0 1-3.5 6.1c-2.2 1.6-5.6 1.1-7.7-.4a9.72 9.72 0 0 1-3.6-6.5 13.79 13.79 0 0 1 .9-8zm-138.2 16.9a18.19 18.19 0 0 0 7.3.6 21.08 21.08 0 0 0 4.9-1.1c.4-1.9.8-3.9 1.2-5.8-.4 0-.7-.1-1.1-.1-.7 2.5-2.2 4.6-4.7 5.3a8.51 8.51 0 0 1-8.7-3.1 12.79 12.79 0 0 1-2.4-7.4 9.65 9.65 0 0 1 2.9-7.5c2.9-2.7 8-2.3 10.8.4a7.49 7.49 0 0 1 1.5 3.8c.3-.1.6-.1.8-.2.3-2 0-4 .1-6-3.5-.9-6.8-1.6-10.4-1.1a12.3 12.3 0 0 0-8.7 5.4 11.47 11.47 0 0 0 6.5 16.8zm39.1-3v-13.9a14.06 14.06 0 0 1 .1-2.9c.7-.9 2.3-1 3.3-1.2v-.9h-10.65v.9a8.45 8.45 0 0 1 3.1.9c.4.3.3.9.4 1.3v6.8h-11.7v-8a11.56 11.56 0 0 1 3.2-1v-.9h-8.7a8.78 8.78 0 0 0-1.7.1c-.1.3-.1.6-.2.9a10.17 10.17 0 0 1 3.4 1v18.2a7.69 7.69 0 0 1-3.3 1v1h10.5v-1a11.92 11.92 0 0 1-3.2-.9v-8.4h11.8v6.9c-.1.6.1 1.4-.5 1.7a10.74 10.74 0 0 1-3 .8 3.78 3.78 0 0 0 .1 1h10.7v-1a10.74 10.74 0 0 1-3-.8c-.75-.38-.65-1.1-.65-1.6zm79.4 3.3v-7.08h-1a6.86 6.86 0 0 1-1.7 4.3 4.88 4.88 0 0 1-3.1 1c-1.8.1-3.6.1-5.5.1v-18.4a15.36 15.36 0 0 1 3.7-1v-1h-9.4a6 6 0 0 0-1.4.1c-.1.3-.1.6-.2.9a8.82 8.82 0 0 1 3.3.9v18a9.63 9.63 0 0 1-4 1.3v.9c6.5-.02 12.9-.1 19.3-.02zm40.8 0h11.7v-1a7.46 7.46 0 0 1-3.6-1.2c-.5-.4-.4-1-.5-1.6v-6.28h5.4c.7.1 1.7.1 2.2.8a7.42 7.42 0 0 1 .7 2.1h1v-5.7c-.1-.9.3-1.7-.8-2.2-.4 1-.5 2.6-1.8 2.8-2.1.5-4.5.3-6.6.4v-8.4h5.5a2.79 2.79 0 0 1 2.4 1 5.51 5.51 0 0 1 .9 2.9h.9v-5.9c-1.3.1-2.5.3-3.8.3h-10.7a11.61 11.61 0 0 0-2.7.1c-.1.3-.1.6-.2 1a8.13 8.13 0 0 1 3.1.8c.6.4.4 1 .5 1.5v16.4a7.37 7.37 0 0 1-3.8 1.4c.2.08.2.38.2.78zm-62.7 48.92a7 7 0 0 1-6 .6 8.42 8.42 0 0 1-5.3-4.6 14.76 14.76 0 0 1-1.3-7.2 9.38 9.38 0 0 1 2.8-6.1c3-2.7 8.1-2.2 10.8.6.9.9 1.1 2.3 1.4 3.5h.9v-6.1c-3.3-.9-6.6-1.6-10-1.1a12.91 12.91 0 0 0-8.2 4.3 11.45 11.45 0 0 0-1.5 11.4 11 11 0 0 0 5.3 5.7 15.15 15.15 0 0 0 9.6 1.3 13 13 0 0 0 4.3-1.1 37.37 37.37 0 0 0 1.3-5.8 4.51 4.51 0 0 1-1.1-.1 7.45 7.45 0 0 1-3 4.7zM113.3 65.34a48.08 48.08 0 0 0-5.5-.1c-2.3.1-4.5 0-6.8.1v.9a8 8 0 0 1 3.7 1.2v15.7a4.17 4.17 0 0 1-.3 2.2c-.8.9-2.4.9-3.5 1.3a1.7 1.7 0 0 0-.1 1h12v-1a8.66 8.66 0 0 1-3.8-1.2c-.6-.4-.4-1-.5-1.7v-5.18c2.9.6 6.1.6 8.5-1.3a6.71 6.71 0 0 0 1.6-8.9 7.18 7.18 0 0 0-5.3-3.02zm-.2 11.4c-1.4.9-2.9.7-4.5.7-.1-2.6 0-5.2 0-7.8a24.19 24.19 0 0 1 .1-2.7 7.3 7.3 0 0 1 3.9.3 4.55 4.55 0 0 1 2.8 4 5.71 5.71 0 0 1-2.25 5.5zm24.8-11.4a3.78 3.78 0 0 1-.1 1c1.2.2 2.9.5 3.8 1.4a7.32 7.32 0 0 1 .2 2.6c.1 2.5.1 5 .1 7.5 0 2.1-.2 4.4-1.6 6a6.24 6.24 0 0 1-5.5 1.8 5.45 5.45 0 0 1-3.9-2.1 7.78 7.78 0 0 1-1.3-4.7v-11.5a7.69 7.69 0 0 1 3.3-1v-1h-9a6 6 0 0 0-1.4.1l-.3.9a10.82 10.82 0 0 1 3.5 1.1c-.1 4 0 8 0 12a10.92 10.92 0 0 0 1 4.7 7 7 0 0 0 4 3.3 12.7 12.7 0 0 0 7.2.3 8.14 8.14 0 0 0 4.8-3.1 9.78 9.78 0 0 0 1.6-5.8v-9.9c0-.6-.1-1.1.4-1.6a9.64 9.64 0 0 1 2.8-1.2c.3-.3.1-.6.1-.9-3.3.2-6.45.1-9.7.1zm27.4 9.4c1.4-.8 2.9-1.6 3.5-3.2a4.31 4.31 0 0 0-.6-4.1 6.93 6.93 0 0 0-4.3-2.1 61.61 61.61 0 0 0-8.7-.1c-1.4 0-2.7 0-4.1.1 0 .3-.1.6-.1 1a7 7 0 0 1 3.5 1.1c-.1 5.3 0 10.7 0 16 0 .7.1 1.6-.5 2-1 .8-2.6.9-3.8 1.1v1H161a13.48 13.48 0 0 0 5.9-1.2 5.62 5.62 0 0 0 2.9-3.5 6.29 6.29 0 0 0-.6-5.5 8.1 8.1 0 0 0-3.9-2.6zm-6.7-8.1a9.25 9.25 0 0 1 3.7.3 3.9 3.9 0 0 1 2.4 2.3 4.64 4.64 0 0 1-.6 4.1c-.3.4-.6.9-1.2.9-1.5.1-3-.1-4.5 0 .2-2.5.1-5 .2-7.6zm5.9 18.3a4.61 4.61 0 0 1-4.6 1.1c-.6-.2-1.3-.6-1.3-1.3-.1-1 0-2.1 0-3.2.1-1.9-.1-3.8.1-5.7 2.1-.2 4.5.1 6.1 1.6a4.19 4.19 0 0 1 1.3 3 6.58 6.58 0 0 1-1.6 4.5zm106.2-18.6c0-.3-.1-.6-.1-.9h-9.1a6 6 0 0 0-1.4.1c-.1.3-.2.5-.3.8a7.41 7.41 0 0 1 3 .9c.6.3.4 1 .4 1.6v6.6h-11.8v-6.6c.1-.5-.1-1.3.4-1.6a10.92 10.92 0 0 1 3.1-1c-.1-.3-.2-.5-.3-.8h-10.45v.9a10.08 10.08 0 0 1 2.9.8.55.55 0 0 1 .4.6 28 28 0 0 1 .1 2.9c0 5 0 10-.1 15a14 14 0 0 1-3.3 1v1h10.5c.1-.3.2-.7.3-1a8.64 8.64 0 0 1-3.5-1.1c.1-2.8 0-5.5 0-8.3h11.8v8.4a8 8 0 0 1-3.3 1v1h10.6c0-.3.1-.7.1-1a8.21 8.21 0 0 1-3.1-.9c-.4-.3-.3-1-.3-1.4v-13.7a17.1 17.1 0 0 1 .1-3.2 6.17 6.17 0 0 1 3.35-1.1zm21.9 15.4a5 5 0 0 1-.8 2.6 3.67 3.67 0 0 1-3 1.3c-2 .1-4.1 0-6.1.1a4.84 4.84 0 0 1-.5-2v-6.6c1.9 0 3.8-.1 5.7 0 .6.1 1.5.1 1.9.6a12.63 12.63 0 0 1 .8 2.1 3 3 0 0 0 .9.1v-7.2h-.9a6.35 6.35 0 0 1-.8 1.9c-.4.6-1.2.6-1.9.7h-5.75v-8.1a51.63 51.63 0 0 1 5.7.1 3.15 3.15 0 0 1 2.6 1.3 10.33 10.33 0 0 1 .7 2.5h.8v-5.9a25.42 25.42 0 0 1-3.9.3h-13.3v.9a7.43 7.43 0 0 1 3.3 1v14.8a15.06 15.06 0 0 1-.1 3c-.8 1.2-2.9 1.3-4.3 1.5v1h19.6v-5.9c-.05-.1-.35-.1-.65-.1zm25.3 2.7c-2-5.2-3.8-10.6-5.5-15.9a12.78 12.78 0 0 1-.7-3.4h-4.2c-.1.3-.1.6-.2.9a41.85 41.85 0 0 1-1.5 4.6c-1.7 4.6-3.4 9.2-5.2 13.7-.3.6-.5 1.3-1.1 1.6a13 13 0 0 1-2.6.7v1h9.1v-1c-1-.3-2.6-.6-3.1-1.6.5-2.1 1.5-4.1 2.1-6.2h7c.8 2.2 1.5 4.4 2.4 6.6a6.5 6.5 0 0 1-3.25 1.12v1h10.6v-1a13 13 0 0 1-2.6-.7 2 2 0 0 1-1.25-1.42zm-12.5-7.3c.9-3 2.1-5.9 3-8.8.8 3 1.9 5.9 2.7 8.8zm56.9-11.8h-14.15a21.68 21.68 0 0 1-3.6-.3v6.7h.9a6.22 6.22 0 0 1 .9-3 3.78 3.78 0 0 1 2.9-1.5c1.4-.1 2.8 0 4.1-.1v18a8.89 8.89 0 0 1-4.5 1.4c.1.3.1.7.2 1h12.6v-1c-1.3-.2-2.9-.3-3.8-1.3-.6-.5-.4-1.2-.5-1.9v-16.3c1.4.1 2.8 0 4.2.1a4 4 0 0 1 2.7 1.4 6.68 6.68 0 0 1 1 3.1h.9c.1-2.2.1-4.5 0-6.8a10.87 10.87 0 0 1-3.85.5zm30.6 20.22v-18.2a9 9 0 0 1 3.3-1.1v-.9h-10.05c-.6 0-.6.4-.7.9a11.39 11.39 0 0 1 3.6 1.1v7.9h-11.8v-6.3a4.52 4.52 0 0 1 .2-1.6c.7-.8 2.2-.9 3.1-1.1v-.9h-10.6v.9c1 .2 2.4.3 3.2 1a4.52 4.52 0 0 1 .2 1.6v12.9a19.33 19.33 0 0 1-.1 3.4c-.1.4-.4.6-.8.8-.82.24-1.66.44-2.5.6v1h10.5c0-.3.1-.7.1-1a9.16 9.16 0 0 1-3.3-1v-8.4h11.8v8.3a14.23 14.23 0 0 1-3.3 1.1c0 .3-.1.6-.1.9h10.7v-1a6.66 6.66 0 0 1-3.45-.9zm-201.6-5.12a6.89 6.89 0 0 1-1.5 4.1 3.52 3.52 0 0 1-2.7 1.1c-2 .1-4 .1-6 .1v-14.9a18.19 18.19 0 0 1 .1-3.3c.7-1 2.5-1.1 3.6-1.3v-1h-10.9v1a7.43 7.43 0 0 1 3.3 1v14.5a17.16 17.16 0 0 1-.1 3.2c-.1.4-.5.6-.8.8a11.42 11.42 0 0 1-3.1.8v1h19.1v-7.2a3.37 3.37 0 0 1-1 .1zm12.1 3.8v-13.9a8.49 8.49 0 0 1 .2-2.8c.7-.9 2.4-.9 3.5-1.1v-1H196v.9a8.76 8.76 0 0 1 3.2.9c.5.3.4 1 .4 1.5v13.1a18.21 18.21 0 0 1-.1 3.3c-.1.5-.5.7-.9.9a14.23 14.23 0 0 1-2.9.6 4.4 4.4 0 0 0 .5.9 9.65 9.65 0 0 0 1.7.1h9.25v-1a9.17 9.17 0 0 1-3.2-.9c-.55-.3-.55-1-.55-1.5zm138.75-3.8a7.31 7.31 0 0 1-1.3 3.8 3.71 3.71 0 0 1-2.9 1.4c-2 .1-4 .1-6.1.1v-14.9a18.19 18.19 0 0 1 .1-3.3c.7-1 2.5-1 3.6-1.2v-1h-10.9v1a19 19 0 0 1 3.3.9v16.5c-.1.6.1 1.5-.5 1.8a9 9 0 0 1-3.6 1v1h19.2v-7.1z"/><path d="M59.8 34.04a13.13 13.13 0 0 1-.1-2.8V5.56a14.06 14.06 0 0 1 .1-2.9c.4-.9 1.6-1.5 1.3-2.6a4 4 0 0 0-1.9.2l-8.05 2.08v1.1c1 .2 2.4.2 3.3.8a2 2 0 0 1 .7 1.8v25.7a8.13 8.13 0 0 1-.1 2.2c-.6 1.2-2.3 1.2-3.4 1.4v1.3h11.9v-1.3c-1.35-.2-3.05-.3-3.75-1.3zM28.2 8.34a7.47 7.47 0 0 1 2.6-3 11.44 11.44 0 0 1 4-1.2c0-.5-.1-1-.1-1.4H22v1.5a10.92 10.92 0 0 1 4.7 1.3c-2.6 4.8-5.4 9.5-8 14.2-2.8-4.7-5.5-9.5-8.2-14.3a10.05 10.05 0 0 1 4.5-1.3v-1.5H0v1.4a10 10 0 0 1 3.8 1.2 10.41 10.41 0 0 1 2.7 3.2c2.5 4.1 4.9 8.3 7.4 12.4.5.9 1.2 1.7 1.1 2.7v9.6c-1.7 1.6-4 1.7-6.2 1.9v1.52H26v-1.5c-1.7-.1-3.7-.2-5-1.5a2.32 2.32 0 0 1-.9-1.9v-7.5a4 4 0 0 1 .4-2.4c2.4-4.42 5-8.92 7.7-13.42z" class="cls-2"/><path d="M48.6 33.94a2 2 0 0 1-2.37-1.54v-.16c-.3-2.6.1-5.4 0-8 0-2.2.3-4.8-.3-7a5 5 0 0 0-2.8-3.1 9.28 9.28 0 0 0-7.8.6 9 9 0 0 0-5.2 6.2c1.7-.2 3.4-.5 5.1-.8.1-1.6.5-3.3 1.9-4.2s3 .2 3.6 1.4c1.1 1.9.6 4.6.7 6.8-3.5 1.4-7.1 2.6-10.6 3.9-.9 1.9-1.6 4.1-.7 6.2a5.18 5.18 0 0 0 4.8 3c2.5.1 4.7-1.4 6.4-3.1a5.74 5.74 0 0 0 1.3 2.1 5 5 0 0 0 4.4.9 9.8 9.8 0 0 0 4-2.9v-1.5a17.91 17.91 0 0 1-2.43 1.2zm-7.2-1.3c-1.2.9-2.3 1.7-3.8 1.6a2.69 2.69 0 0 1-2.5-2 9.73 9.73 0 0 1 .2-3.8c1.8-.9 3.6-1.7 5.4-2.5.2-.1.5-.2.7-.3zm43.75-1.5a13.33 13.33 0 0 1-3.1 2.1 7.9 7.9 0 0 1-4.8.4 7.54 7.54 0 0 1-5.3-4.2 13 13 0 0 1-.8-7.3 22.89 22.89 0 0 0 3.7.2h10.7a11.09 11.09 0 0 0-.5-4.4 6.34 6.34 0 0 0-4.1-3.9 12.18 12.18 0 0 0-7.8.2 11.11 11.11 0 0 0-5.5 5 15 15 0 0 0-1.6 7.5 10 10 0 0 0 5.4 9 11.12 11.12 0 0 0 8 .6 16.25 16.25 0 0 0 6.6-4.3 7.65 7.65 0 0 1-.9-.9zm-11.3-14.7a4 4 0 0 1 5.2 0 6.45 6.45 0 0 1 1.8 4.2h-4.8c-1.5 0-3 .2-4.5.2a6.77 6.77 0 0 1 2.25-4.4z" class="cls-2"/></svg>